<?xml version="1.0" standalone="no"?>
<!DOCTYPE svg PUBLIC "-//W3C//DTD SVG 20010904//EN"
 "http://www.w3.org/TR/2001/REC-SVG-20010904/DTD/svg10.dtd">
<svg version="1.0" xmlns="http://www.w3.org/2000/svg"
 width="512.000000pt" height="512.000000pt" viewBox="0 0 512.000000 512.000000"
 preserveAspectRatio="xMidYMid meet">
<g transform="translate(0.000000,512.000000) scale(0.100000,-0.100000)"
fill="#ff0000" stroke="none">
<path d="M2260 2912 c-124 -41 -224 -139 -251 -245 -10 -43 -14 -48 -53 -58
-188 -49 -225 -313 -55 -399 38 -20 55 -20 668 -18 l629 3 39 31 c137 110 119
288 -37 366 -42 21 -59 36 -77 71 -60 119 -236 184 -331 121 -23 -15 -25 -14
-75 33 -86 81 -150 106 -287 110 -91 2 -126 -1 -170 -15z m-135 -221 c5 -9 -6
-75 -21 -123 -5 -16 3 -18 81 -18 60 0 87 4 89 13 3 6 10 39 18 72 12 55 16
60 41 63 56 7 57 2 32 -100 -16 -62 -21 -96 -14 -103 11 -11 77 -11 180 0 52
6 73 4 98 -10 36 -18 83 -20 202 -10 59 5 83 4 105 -8 52 -27 99 -31 147 -12
24 9 53 16 63 15 34 -4 42 0 47 20 8 30 24 24 31 -10 4 -24 11 -30 31 -30 30
0 33 -15 5 -30 -13 -7 -20 -21 -20 -40 0 -33 -11 -38 -30 -15 -8 10 -20 13
-29 9 -69 -29 -204 -35 -258 -10 -43 19 -48 19 -201 -1 -31 -4 -56 1 -92 16
-55 24 -96 26 -168 10 -37 -9 -61 -9 -93 -1 -51 13 -51 13 -58 -41 -6 -41 -7
-42 -48 -45 -49 -4 -50 -2 -28 78 27 102 28 101 -67 98 l-83 -3 -17 -80 c-9
-44 -17 -83 -17 -87 -2 -14 -81 -9 -81 5 0 6 15 77 34 157 18 80 36 162 40
182 5 30 12 37 34 41 15 2 30 5 34 6 4 0 9 -3 13 -8z"/>
</g>
</svg>
