<svg width="152" height="104" viewBox="0 0 152 104" fill="none" xmlns="http://www.w3.org/2000/svg">
<path d="M6.45506 103V75.136H9.73106V91.552L9.65906 90.94C10.1631 89.956 10.9311 89.14 11.9631 88.492C13.0191 87.844 14.2551 87.52 15.6711 87.52C17.0871 87.52 18.2391 87.94 19.1271 88.78C20.0391 89.596 20.5071 90.664 20.5311 91.984V103H17.1471V93.172C17.1231 92.356 16.8831 91.696 16.4271 91.192C15.9951 90.664 15.3111 90.4 14.3751 90.4C13.5111 90.4 12.7311 90.652 12.0351 91.156C11.3391 91.636 10.7871 92.296 10.3791 93.136C9.99506 93.976 9.80306 94.936 9.80306 96.016V103H6.45506ZM32.5455 103.36C31.1535 103.36 29.8815 103.06 28.7295 102.46C27.6015 101.86 26.7015 100.984 26.0295 99.832C25.3815 98.656 25.0575 97.228 25.0575 95.548C25.0575 93.892 25.4055 92.464 26.1015 91.264C26.7975 90.04 27.7215 89.104 28.8735 88.456C30.0495 87.808 31.3335 87.484 32.7255 87.484C34.1175 87.484 35.2935 87.808 36.2535 88.456C37.2135 89.08 37.9455 89.824 38.4495 90.688L38.2335 91.264L38.5575 88.096H41.6535V103H38.3055V99.112L38.6655 99.976C38.5695 100.216 38.3535 100.528 38.0175 100.912C37.7055 101.272 37.2735 101.644 36.7215 102.028C36.1935 102.412 35.5815 102.736 34.8855 103C34.1895 103.24 33.4095 103.36 32.5455 103.36ZM33.4455 100.588C34.2855 100.588 35.0415 100.432 35.7135 100.12C36.3855 99.808 36.9375 99.376 37.3695 98.824C37.8255 98.248 38.1375 97.564 38.3055 96.772V93.856C38.1135 93.136 37.7775 92.512 37.2975 91.984C36.8175 91.432 36.2415 91.012 35.5695 90.724C34.8975 90.412 34.1535 90.256 33.3375 90.256C32.4495 90.256 31.6335 90.472 30.8895 90.904C30.1455 91.336 29.5455 91.936 29.0895 92.704C28.6575 93.472 28.4415 94.372 28.4415 95.404C28.4415 96.364 28.6695 97.24 29.1255 98.032C29.5815 98.824 30.1935 99.448 30.9615 99.904C31.7295 100.36 32.5575 100.588 33.4455 100.588ZM59.5433 101.632C58.8713 102.16 58.0673 102.58 57.1313 102.892C56.1953 103.204 55.2593 103.36 54.3233 103.36C52.6913 103.36 51.2633 103.036 50.0393 102.388C48.8153 101.74 47.8553 100.84 47.1593 99.688C46.4873 98.512 46.1513 97.132 46.1513 95.548C46.1513 93.964 46.5113 92.584 47.2313 91.408C47.9753 90.232 48.9353 89.332 50.1113 88.708C51.3113 88.06 52.5953 87.736 53.9633 87.736C55.1633 87.736 56.2313 87.904 57.1673 88.24C58.1273 88.576 58.9433 89.032 59.6153 89.608L57.9593 91.768C57.5273 91.432 56.9993 91.132 56.3753 90.868C55.7513 90.604 55.0433 90.472 54.2513 90.472C53.3873 90.472 52.5833 90.7 51.8393 91.156C51.1193 91.588 50.5433 92.188 50.1113 92.956C49.7033 93.724 49.4993 94.588 49.4993 95.548C49.4993 96.46 49.7153 97.312 50.1473 98.104C50.5793 98.872 51.1793 99.484 51.9473 99.94C52.7153 100.372 53.5913 100.588 54.5753 100.588C55.2233 100.588 55.8113 100.492 56.3393 100.3C56.8913 100.108 57.3833 99.844 57.8153 99.508L59.5433 101.632ZM63.8652 103V75.136H67.2132V103H63.8652ZM70.8132 93.1L77.6532 103H73.7292L68.5812 94.972L70.8132 93.1ZM66.1692 98.248L65.8452 95.044L74.8812 87.772L76.9332 89.536L66.1692 98.248ZM83.0189 103V91.084H80.4629V88.096H83.0189V81.796C83.0189 79.636 83.4989 77.98 84.4589 76.828C85.4429 75.676 86.8829 75.1 88.7789 75.1C89.2829 75.1 89.8349 75.172 90.4349 75.316C91.0589 75.46 91.5989 75.7 92.0549 76.036L90.6509 78.448C90.4349 78.232 90.1949 78.088 89.9309 78.016C89.6669 77.92 89.4029 77.872 89.1389 77.872C88.2509 77.872 87.5669 78.172 87.0869 78.772C86.6069 79.372 86.3669 80.392 86.3669 81.832V88.096H90.6149V91.084H86.3669V103H83.0189ZM93.4949 75.136H96.8429V103H93.4949V75.136ZM108.87 103.36C107.478 103.36 106.206 103.06 105.054 102.46C103.926 101.86 103.026 100.984 102.354 99.832C101.706 98.656 101.382 97.228 101.382 95.548C101.382 93.892 101.73 92.464 102.426 91.264C103.122 90.04 104.046 89.104 105.198 88.456C106.374 87.808 107.658 87.484 109.05 87.484C110.442 87.484 111.618 87.808 112.578 88.456C113.538 89.08 114.27 89.824 114.774 90.688L114.558 91.264L114.882 88.096H117.978V103H114.63V99.112L114.99 99.976C114.894 100.216 114.678 100.528 114.342 100.912C114.03 101.272 113.598 101.644 113.046 102.028C112.518 102.412 111.906 102.736 111.21 103C110.514 103.24 109.734 103.36 108.87 103.36ZM109.77 100.588C110.61 100.588 111.366 100.432 112.038 100.12C112.71 99.808 113.262 99.376 113.694 98.824C114.15 98.248 114.462 97.564 114.63 96.772V93.856C114.438 93.136 114.102 92.512 113.622 91.984C113.142 91.432 112.566 91.012 111.894 90.724C111.222 90.412 110.478 90.256 109.662 90.256C108.774 90.256 107.958 90.472 107.214 90.904C106.47 91.336 105.87 91.936 105.414 92.704C104.982 93.472 104.766 94.372 104.766 95.404C104.766 96.364 104.994 97.24 105.45 98.032C105.906 98.824 106.518 99.448 107.286 99.904C108.054 100.36 108.882 100.588 109.77 100.588ZM126.759 88.096L127.083 92.416L126.903 91.84C127.287 90.928 127.839 90.16 128.559 89.536C129.303 88.888 130.071 88.396 130.863 88.06C131.679 87.7 132.387 87.52 132.987 87.52L132.807 90.832C131.679 90.76 130.683 90.976 129.819 91.48C128.979 91.984 128.307 92.656 127.803 93.496C127.323 94.336 127.083 95.236 127.083 96.196V103H123.771V88.096H126.759ZM143.586 103.36C141.882 103.36 140.418 103.024 139.194 102.352C137.97 101.656 137.022 100.72 136.35 99.544C135.702 98.344 135.378 96.976 135.378 95.44C135.378 93.976 135.75 92.644 136.494 91.444C137.238 90.244 138.234 89.284 139.482 88.564C140.73 87.844 142.122 87.484 143.658 87.484C145.626 87.484 147.258 88.06 148.554 89.212C149.85 90.364 150.726 91.948 151.182 93.964L138.906 98.284L138.114 96.304L148.194 92.632L147.474 93.1C147.186 92.308 146.706 91.624 146.034 91.048C145.362 90.448 144.486 90.148 143.406 90.148C142.494 90.148 141.678 90.376 140.958 90.832C140.238 91.264 139.674 91.864 139.266 92.632C138.858 93.4 138.654 94.276 138.654 95.26C138.654 96.292 138.87 97.204 139.302 97.996C139.734 98.764 140.322 99.376 141.066 99.832C141.834 100.264 142.698 100.48 143.658 100.48C144.306 100.48 144.93 100.36 145.53 100.12C146.154 99.88 146.73 99.568 147.258 99.184L148.806 101.668C148.062 102.172 147.222 102.58 146.286 102.892C145.374 103.204 144.474 103.36 143.586 103.36Z" fill="white"/>
<ellipse cx="26" cy="51" rx="26" ry="21" fill="#5271AA"/>
<ellipse cx="52" cy="30" rx="26" ry="21" fill="#5271AA"/>
<ellipse cx="125" cy="51" rx="26" ry="21" fill="#5271AA"/>
<ellipse cx="83.5" cy="36" rx="44.5" ry="36" fill="#5271AA"/>
<rect x="21" y="51" width="107" height="21" fill="#5271AA"/>
<path d="M30.6072 42.9304C31.9716 35.2243 43.0284 35.2243 44.3928 42.9304L46.0038 52.0296C46.763 56.3171 43.4653 60.25 39.111 60.25H35.889C31.5348 60.25 28.237 56.3171 28.9962 52.0296L30.6072 42.9304Z" fill="#5271AA"/>
<ellipse cx="37.5" cy="55.0938" rx="8.94444" ry="8.90625" fill="#5271AA"/>
<path d="M68.6072 27.9304C69.9716 20.2243 81.0284 20.2243 82.3928 27.9304L84.0038 37.0296C84.763 41.3171 81.4653 45.25 77.111 45.25H73.889C69.5348 45.25 66.237 41.3171 66.9962 37.0296L68.6072 27.9304Z" fill="#5271AA"/>
<ellipse cx="75.5" cy="40.0938" rx="8.94444" ry="8.90625" fill="#5271AA"/>
<path d="M109.607 45.9304C110.972 38.2243 122.028 38.2243 123.393 45.9304L125.004 55.0296C125.763 59.3171 122.465 63.25 118.111 63.25H114.889C110.535 63.25 107.237 59.3171 107.996 55.0296L109.607 45.9304Z" fill="#5271AA"/>
<ellipse cx="116.5" cy="58.0938" rx="8.94444" ry="8.90625" fill="#5271AA"/>
</svg>
