<?xml version="1.0" encoding="UTF-8"?>
<svg version="1.1" xmlns="http://www.w3.org/2000/svg" width="256" height="256">
<path d="M0 0 C0.88945313 0.00322266 1.77890625 0.00644531 2.6953125 0.00976562 C3.61570313 0.01814453 4.53609375 0.02652344 5.484375 0.03515625 C6.88816406 0.04192383 6.88816406 0.04192383 8.3203125 0.04882812 C10.62506541 0.06058707 12.92968727 0.07702199 15.234375 0.09765625 C15.234375 0.75765625 15.234375 1.41765625 15.234375 2.09765625 C16.554375 1.76765625 17.874375 1.43765625 19.234375 1.09765625 C19.234375 1.75765625 19.234375 2.41765625 19.234375 3.09765625 C20.54341797 3.24074219 20.54341797 3.24074219 21.87890625 3.38671875 C25.55406661 4.16539068 27.80150318 5.4098163 30.921875 7.47265625 C31.85386719 8.07851562 32.78585938 8.684375 33.74609375 9.30859375 C36.234375 11.09765625 36.234375 11.09765625 37.8359375 12.78125 C40.19952341 15.00618981 43.11768807 14.80362918 46.234375 15.09765625 C46.234375 14.43765625 46.234375 13.77765625 46.234375 13.09765625 C47.884375 13.42765625 49.534375 13.75765625 51.234375 14.09765625 C51.234375 13.43765625 51.234375 12.77765625 51.234375 12.09765625 C55.984375 11.97265625 55.984375 11.97265625 58.234375 13.09765625 C59.41 13.31421875 59.41 13.31421875 60.609375 13.53515625 C64.29524893 14.32498638 66.56906545 15.4323467 69.234375 18.09765625 C69.976875 18.46890625 70.719375 18.84015625 71.484375 19.22265625 C76.06385591 22.3450296 79.47996704 26.83443237 81.234375 32.09765625 C82.430625 32.63390625 83.626875 33.17015625 84.859375 33.72265625 C91.2142356 36.70042756 95.13299396 42.46879115 98.171875 48.66015625 C100.29655842 55.53413201 99.67182975 60.5534876 96.57421875 66.9140625 C94.10080824 70.94507263 90.81705353 75.42391403 86.078125 76.66015625 C85.4696875 76.80453125 84.86125 76.94890625 84.234375 77.09765625 C83.904375 77.75765625 83.574375 78.41765625 83.234375 79.09765625 C82.574375 78.76765625 81.914375 78.43765625 81.234375 78.09765625 C81.234375 78.75765625 81.234375 79.41765625 81.234375 80.09765625 C40.644375 80.09765625 0.054375 80.09765625 -41.765625 80.09765625 C-41.765625 79.43765625 -41.765625 78.77765625 -41.765625 78.09765625 C-43.250625 78.59265625 -43.250625 78.59265625 -44.765625 79.09765625 C-44.765625 78.43765625 -44.765625 77.77765625 -44.765625 77.09765625 C-45.8175 76.81921875 -45.8175 76.81921875 -46.890625 76.53515625 C-51.94672203 74.00710774 -55.61463839 69.30782381 -57.765625 64.09765625 C-59.37653752 56.25863829 -59.21317925 49.88749612 -54.765625 43.09765625 C-52.203125 40.22265625 -52.203125 40.22265625 -49.765625 38.09765625 C-49.20875 37.52015625 -48.651875 36.94265625 -48.078125 36.34765625 C-46.765625 35.09765625 -46.765625 35.09765625 -44.765625 34.09765625 C-44.105625 33.43765625 -43.445625 32.77765625 -42.765625 32.09765625 C-41.445625 32.09765625 -40.125625 32.09765625 -38.765625 32.09765625 C-37.6314608 29.82932784 -36.85766864 27.66832683 -36.453125 25.16015625 C-35.53941049 22.41901271 -33.79026935 21.1223006 -31.765625 19.09765625 C-30.9783572 16.95945965 -30.9783572 16.95945965 -30.765625 15.09765625 C-29.445625 14.76765625 -28.125625 14.43765625 -26.765625 14.09765625 C-26.765625 13.43765625 -26.765625 12.77765625 -26.765625 12.09765625 C-26.105625 12.09765625 -25.445625 12.09765625 -24.765625 12.09765625 C-24.765625 11.43765625 -24.765625 10.77765625 -24.765625 10.09765625 C-22.47633447 8.92611332 -20.18444138 7.76027551 -17.890625 6.59765625 C-17.23964844 6.26378906 -16.58867188 5.92992188 -15.91796875 5.5859375 C-10.9921875 3.09765625 -10.9921875 3.09765625 -8.765625 3.09765625 C-8.765625 2.43765625 -8.765625 1.77765625 -8.765625 1.09765625 C-5.76855805 0.22802538 -3.11605974 -0.01997474 0 0 Z M-35.765625 25.09765625 C-34.765625 27.09765625 -34.765625 27.09765625 -34.765625 27.09765625 Z M-28.765625 28.09765625 C-32.21748176 39.62720827 -35.14921926 51.14833906 -36.765625 63.09765625 C-34.785625 62.60265625 -34.785625 62.60265625 -32.765625 62.09765625 C-32.57226562 61.18242187 -32.37890625 60.2671875 -32.1796875 59.32421875 C-31.91929688 58.13570312 -31.65890625 56.9471875 -31.390625 55.72265625 C-31.13539062 54.53929687 -30.88015625 53.3559375 -30.6171875 52.13671875 C-29.765625 49.09765625 -29.765625 49.09765625 -27.765625 47.09765625 C-25.88623047 46.87060547 -25.88623047 46.87060547 -23.6328125 46.90234375 C-22.82714844 46.90878906 -22.02148438 46.91523438 -21.19140625 46.921875 C-19.92876953 46.94701172 -19.92876953 46.94701172 -18.640625 46.97265625 C-17.36638672 46.98619141 -17.36638672 46.98619141 -16.06640625 47 C-13.96602616 47.02359978 -11.86579056 47.05947142 -9.765625 47.09765625 C-8.95334149 52.82575925 -8.84735757 57.38399223 -9.765625 63.09765625 C-8.280625 63.59265625 -8.280625 63.59265625 -6.765625 64.09765625 C-6.62125 62.81890625 -6.476875 61.54015625 -6.328125 60.22265625 C-6.05919754 57.84072731 -5.84336154 56.25312934 -4.765625 54.09765625 C-3.115625 54.42765625 -1.465625 54.75765625 0.234375 55.09765625 C0.234375 55.42765625 0.234375 55.75765625 0.234375 56.09765625 C1.98402858 56.15195584 3.73417287 56.19058448 5.484375 56.22265625 C6.45890625 56.24585938 7.4334375 56.2690625 8.4375 56.29296875 C11.30406213 56.09278983 12.75216018 55.4430584 15.234375 54.09765625 C19.54226486 53.78994983 22.54222892 53.80597937 26.234375 56.09765625 C29.58498918 58.12742698 32.09305742 58.31530667 35.984375 58.22265625 C36.96921875 58.20460938 37.9540625 58.1865625 38.96875 58.16796875 C39.71640625 58.14476562 40.4640625 58.1215625 41.234375 58.09765625 C41.564375 57.43765625 41.894375 56.77765625 42.234375 56.09765625 C43.98402858 56.04335666 45.73417287 56.00472802 47.484375 55.97265625 C48.45890625 55.94945312 49.4334375 55.92625 50.4375 55.90234375 C53.30277991 56.10243313 54.78238653 56.68304752 57.234375 58.09765625 C58.719375 58.59265625 58.719375 58.59265625 60.234375 59.09765625 C61.224375 58.60265625 61.224375 58.60265625 62.234375 58.09765625 C62.234375 58.75765625 62.234375 59.41765625 62.234375 60.09765625 C67.03983153 60.33009774 67.03983153 60.33009774 71.62109375 59.109375 C74.51021663 57.99086555 76.77586128 57.86585427 79.859375 57.78515625 C82.70477334 57.64593066 82.70477334 57.64593066 85.234375 57.09765625 C87.52233259 54.742182 87.52233259 54.742182 88.234375 52.09765625 C87.574375 51.76765625 86.914375 51.43765625 86.234375 51.09765625 C85.244375 49.61265625 85.244375 49.61265625 84.234375 48.09765625 C83.904375 48.75765625 83.574375 49.41765625 83.234375 50.09765625 C81.57309037 50.45685293 79.90537477 50.78677257 78.234375 51.09765625 C77.34492188 51.61585938 77.34492188 51.61585938 76.4375 52.14453125 C73.52599261 53.40411956 71.43968438 53.14885866 68.296875 52.84765625 C67.27722656 52.76 66.25757813 52.67234375 65.20703125 52.58203125 C62.234375 52.09765625 62.234375 52.09765625 59.76953125 51.03125 C56.50752003 49.82998547 54.0551526 50.08142115 50.609375 50.41015625 C49.48273438 50.50941406 48.35609375 50.60867187 47.1953125 50.7109375 C44.18390869 51.00853192 44.18390869 51.00853192 41.234375 52.09765625 C36.40392995 52.53678762 32.38302173 52.61779816 27.921875 50.59765625 C23.31754669 48.72470914 19.66078853 48.99371315 14.74609375 49.125 C9.14789533 49.08141002 3.72925268 48.1049006 -1.765625 47.09765625 C-2.71006337 43.0755376 -2.63490947 41.72626727 -0.765625 38.09765625 C-0.725633 36.09805613 -0.72215701 34.09718383 -0.765625 32.09765625 C-0.435625 31.43765625 -0.105625 30.77765625 0.234375 30.09765625 C-0.260625 29.10765625 -0.260625 29.10765625 -0.765625 28.09765625 C-1.425625 28.09765625 -2.085625 28.09765625 -2.765625 28.09765625 C-3.755625 31.06765625 -4.745625 34.03765625 -5.765625 37.09765625 C-6.095625 37.09765625 -6.425625 37.09765625 -6.765625 37.09765625 C-7.095625 39.07765625 -7.425625 41.05765625 -7.765625 43.09765625 C-13.705625 43.42765625 -19.645625 43.75765625 -25.765625 44.09765625 C-26.095625 43.10765625 -26.425625 42.11765625 -26.765625 41.09765625 C-27.425625 41.09765625 -28.085625 41.09765625 -28.765625 41.09765625 C-27.775625 36.80765625 -26.785625 32.51765625 -25.765625 28.09765625 C-26.755625 28.09765625 -27.745625 28.09765625 -28.765625 28.09765625 Z M-4.765625 28.09765625 C-3.765625 31.09765625 -3.765625 31.09765625 -3.765625 31.09765625 Z M-5.765625 32.09765625 C-4.765625 36.09765625 -4.765625 36.09765625 -4.765625 36.09765625 Z M44.234375 49.09765625 C44.234375 49.42765625 44.234375 49.75765625 44.234375 50.09765625 C47.534375 50.09765625 50.834375 50.09765625 54.234375 50.09765625 C54.234375 49.76765625 54.234375 49.43765625 54.234375 49.09765625 C50.934375 49.09765625 47.634375 49.09765625 44.234375 49.09765625 Z M-9.765625 51.09765625 C-8.765625 55.09765625 -8.765625 55.09765625 -8.765625 55.09765625 Z M32.234375 51.09765625 C32.234375 51.42765625 32.234375 51.75765625 32.234375 52.09765625 C35.204375 52.09765625 38.174375 52.09765625 41.234375 52.09765625 C41.234375 51.76765625 41.234375 51.43765625 41.234375 51.09765625 C38.264375 51.09765625 35.294375 51.09765625 32.234375 51.09765625 Z M-30.765625 52.09765625 C-29.765625 56.09765625 -29.765625 56.09765625 -29.765625 56.09765625 Z M-10.765625 56.09765625 C-9.765625 59.09765625 -9.765625 59.09765625 -9.765625 59.09765625 Z M-31.765625 57.09765625 C-31.765625 58.74765625 -31.765625 60.39765625 -31.765625 62.09765625 C-31.435625 62.09765625 -31.105625 62.09765625 -30.765625 62.09765625 C-30.765625 60.44765625 -30.765625 58.79765625 -30.765625 57.09765625 C-31.095625 57.09765625 -31.425625 57.09765625 -31.765625 57.09765625 Z M-11.765625 60.09765625 C-10.765625 63.09765625 -10.765625 63.09765625 -10.765625 63.09765625 Z M-32.765625 62.09765625 C-31.765625 64.09765625 -31.765625 64.09765625 -31.765625 64.09765625 Z M-12.765625 64.09765625 C-12.765625 64.42765625 -12.765625 64.75765625 -12.765625 65.09765625 C-11.115625 65.09765625 -9.465625 65.09765625 -7.765625 65.09765625 C-7.765625 64.76765625 -7.765625 64.43765625 -7.765625 64.09765625 C-9.415625 64.09765625 -11.065625 64.09765625 -12.765625 64.09765625 Z " fill="#FC6741" transform="translate(107.765625,87.90234375)"/>
<path d="M0 0 C0.88945313 0.00322266 1.77890625 0.00644531 2.6953125 0.00976562 C3.61570313 0.01814453 4.53609375 0.02652344 5.484375 0.03515625 C6.88816406 0.04192383 6.88816406 0.04192383 8.3203125 0.04882812 C10.62506541 0.06058707 12.92968727 0.07702199 15.234375 0.09765625 C14.904375 0.75765625 14.574375 1.41765625 14.234375 2.09765625 C14.234375 2.75765625 14.234375 3.41765625 14.234375 4.09765625 C13.34298828 4.16496948 13.34298828 4.16496948 12.43359375 4.23364258 C9.69942387 4.44705028 6.96705518 4.67848043 4.234375 4.91015625 C3.29980469 4.98041016 2.36523438 5.05066406 1.40234375 5.12304688 C-6.91811027 5.85035929 -13.61032106 7.14492772 -19.515625 13.53515625 C-20.23234375 14.29699219 -20.9490625 15.05882813 -21.6875 15.84375 C-22.37328125 16.58753906 -23.0590625 17.33132812 -23.765625 18.09765625 C-24.51328125 18.78988281 -25.2609375 19.48210937 -26.03125 20.1953125 C-28.10248974 22.03809697 -28.10248974 22.03809697 -27.765625 25.09765625 C-26.775625 24.76765625 -25.785625 24.43765625 -24.765625 24.09765625 C-22.515625 24.97265625 -22.515625 24.97265625 -20.765625 27.09765625 C-20.62193634 31.56890919 -21.68721342 35.78400995 -22.765625 40.09765625 C-18.475625 40.09765625 -14.185625 40.09765625 -9.765625 40.09765625 C-9.58 37.71546875 -9.58 37.71546875 -9.390625 35.28515625 C-9.10379965 31.60423094 -8.87389555 30.26006207 -6.765625 27.09765625 C-6.105625 27.09765625 -5.445625 27.09765625 -4.765625 27.09765625 C-3.56767103 33.46268879 -3.65683698 37.35835528 -6.765625 43.09765625 C-8.92467319 45.25670444 -13.65447045 44.3292516 -16.640625 44.34765625 C-17.46949219 44.36828125 -18.29835937 44.38890625 -19.15234375 44.41015625 C-20.34923828 44.41789062 -20.34923828 44.41789062 -21.5703125 44.42578125 C-22.30233887 44.43512695 -23.03436523 44.44447266 -23.78857422 44.45410156 C-26.34046234 43.994018 -27.23765985 43.16418889 -28.765625 41.09765625 C-28.62109375 38.1796875 -28.62109375 38.1796875 -27.953125 34.91015625 C-27.74042969 33.82347656 -27.52773437 32.73679688 -27.30859375 31.6171875 C-27.12941406 30.78574219 -26.95023438 29.95429687 -26.765625 29.09765625 C-27.425625 28.76765625 -28.085625 28.43765625 -28.765625 28.09765625 C-28.94738281 28.94585937 -29.12914063 29.7940625 -29.31640625 30.66796875 C-29.56777344 31.84101562 -29.81914063 33.0140625 -30.078125 34.22265625 C-30.34882812 35.49367187 -30.61953125 36.7646875 -30.8984375 38.07421875 C-31.45994563 40.69840979 -32.0410109 43.3158047 -32.6328125 45.93359375 C-32.90351562 47.14273438 -33.17421875 48.351875 -33.453125 49.59765625 C-33.70449219 50.70109375 -33.95585938 51.80453125 -34.21484375 52.94140625 C-34.75966558 56.0635058 -34.86562451 58.93576684 -34.765625 62.09765625 C-34.435625 62.09765625 -34.105625 62.09765625 -33.765625 62.09765625 C-33.58386719 61.11023438 -33.40210937 60.1228125 -33.21484375 59.10546875 C-32.96347656 57.82414062 -32.71210937 56.5428125 -32.453125 55.22265625 C-32.20949219 53.94648438 -31.96585938 52.6703125 -31.71484375 51.35546875 C-30.765625 48.09765625 -30.765625 48.09765625 -27.765625 46.09765625 C-25.77270508 45.87060547 -25.77270508 45.87060547 -23.53515625 45.90234375 C-22.73271484 45.90878906 -21.93027344 45.91523438 -21.10351562 45.921875 C-20.27013672 45.93863281 -19.43675781 45.95539063 -18.578125 45.97265625 C-17.3106543 45.98619141 -17.3106543 45.98619141 -16.01757812 46 C-13.93347257 46.02354922 -11.84951283 46.05941978 -9.765625 46.09765625 C-7.93396497 49.18551224 -7.57472476 51.0556594 -8.078125 54.59765625 C-8.22701172 55.726875 -8.22701172 55.726875 -8.37890625 56.87890625 C-8.74614158 58.98587259 -9.21620066 61.03144507 -9.765625 63.09765625 C-8.775625 63.59265625 -8.775625 63.59265625 -7.765625 64.09765625 C-9.745625 64.59265625 -9.745625 64.59265625 -11.765625 65.09765625 C-9.785625 65.09765625 -7.805625 65.09765625 -5.765625 65.09765625 C-5.105625 62.45765625 -4.445625 59.81765625 -3.765625 57.09765625 C-2.18238812 57.07046325 -0.59901438 57.05117319 0.984375 57.03515625 C1.86609375 57.02355469 2.7478125 57.01195312 3.65625 57 C6.234375 57.09765625 6.234375 57.09765625 8.3125 57.6640625 C10.64821642 58.19102291 11.93155004 57.70698037 14.234375 57.09765625 C16.31672092 57.03022277 18.40106057 57.01251153 20.484375 57.03515625 C22.10085937 57.04869141 22.10085937 57.04869141 23.75 57.0625 C24.56984375 57.07410156 25.3896875 57.08570313 26.234375 57.09765625 C26.234375 57.75765625 26.234375 58.41765625 26.234375 59.09765625 C26.95915039 59.07670898 27.68392578 59.05576172 28.43066406 59.03417969 C31.78175428 58.94994929 35.13262071 58.89866121 38.484375 58.84765625 C39.62390625 58.81414062 40.7634375 58.780625 41.9375 58.74609375 C49.15548056 58.66407124 54.81880917 59.56253077 61.50683594 62.32910156 C67.47265267 64.01012475 74.1481753 61.17862737 80.015625 59.71875 C83.17680015 59.10876596 86.02445082 58.98646912 89.234375 59.09765625 C89.523125 58.33453125 89.811875 57.57140625 90.109375 56.78515625 C91.234375 54.09765625 91.234375 54.09765625 93.234375 51.09765625 C93.894375 51.09765625 94.554375 51.09765625 95.234375 51.09765625 C95.44915361 63.1729869 95.44915361 63.1729869 94.234375 67.09765625 C90.12911184 71.09765625 90.12911184 71.09765625 87.234375 71.09765625 C86.80125 72.30421875 86.80125 72.30421875 86.359375 73.53515625 C85.234375 76.09765625 85.234375 76.09765625 83.234375 77.09765625 C81.24481929 77.18834595 79.25211117 77.21210738 77.26049805 77.20629883 C75.97706009 77.20474289 74.69362213 77.20318695 73.37129211 77.20158386 C71.93372499 77.19448568 70.49615888 77.18717947 69.05859375 77.1796875 C67.54538562 77.17513372 66.03217651 77.17089518 64.51896667 77.16694641 C60.32382457 77.15414616 56.12874878 77.13374804 51.93364716 77.11151886 C49.19162968 77.09743672 46.44960938 77.08532089 43.70758057 77.07366943 C32.8759156 77.02634232 22.04462342 76.95764265 11.213274 76.86192131 C6.06691928 76.81667479 0.92066009 76.77740386 -4.22583008 76.7512207 C-9.30965907 76.72521663 -14.39318829 76.68493037 -19.47683144 76.63446999 C-21.38848505 76.61789481 -23.30018937 76.60632273 -25.21190453 76.60004234 C-27.8605896 76.59041041 -30.50849097 76.56239506 -33.15698242 76.5300293 C-33.92931717 76.53146439 -34.70165192 76.53289948 -35.49739075 76.53437805 C-40.60917984 76.44611786 -44.18157795 75.37729365 -48.765625 73.09765625 C-48.435625 73.75765625 -48.105625 74.41765625 -47.765625 75.09765625 C-52.9714997 72.9068977 -55.3954444 69.09895477 -57.765625 64.09765625 C-59.51149694 57.20557541 -59.32173925 51.33370704 -56.01171875 45 C-54.2448623 42.30263608 -52.18974419 40.21099093 -49.765625 38.09765625 C-49.20875 37.52015625 -48.651875 36.94265625 -48.078125 36.34765625 C-46.765625 35.09765625 -46.765625 35.09765625 -44.765625 34.09765625 C-44.105625 33.43765625 -43.445625 32.77765625 -42.765625 32.09765625 C-41.445625 32.09765625 -40.125625 32.09765625 -38.765625 32.09765625 C-37.6314608 29.82932784 -36.85766864 27.66832683 -36.453125 25.16015625 C-35.53941049 22.41901271 -33.79026935 21.1223006 -31.765625 19.09765625 C-30.9783572 16.95945965 -30.9783572 16.95945965 -30.765625 15.09765625 C-29.445625 14.76765625 -28.125625 14.43765625 -26.765625 14.09765625 C-26.765625 13.43765625 -26.765625 12.77765625 -26.765625 12.09765625 C-26.105625 12.09765625 -25.445625 12.09765625 -24.765625 12.09765625 C-24.765625 11.43765625 -24.765625 10.77765625 -24.765625 10.09765625 C-22.47633447 8.92611332 -20.18444138 7.76027551 -17.890625 6.59765625 C-17.23964844 6.26378906 -16.58867188 5.92992188 -15.91796875 5.5859375 C-10.9921875 3.09765625 -10.9921875 3.09765625 -8.765625 3.09765625 C-8.765625 2.43765625 -8.765625 1.77765625 -8.765625 1.09765625 C-5.76855805 0.22802538 -3.11605974 -0.01997474 0 0 Z M-35.765625 25.09765625 C-34.765625 27.09765625 -34.765625 27.09765625 -34.765625 27.09765625 Z M-5.765625 32.09765625 C-4.765625 36.09765625 -4.765625 36.09765625 -4.765625 36.09765625 Z M-9.765625 51.09765625 C-8.765625 55.09765625 -8.765625 55.09765625 -8.765625 55.09765625 Z M-30.765625 52.09765625 C-29.765625 56.09765625 -29.765625 56.09765625 -29.765625 56.09765625 Z M-10.765625 56.09765625 C-9.765625 59.09765625 -9.765625 59.09765625 -9.765625 59.09765625 Z M-31.765625 57.09765625 C-31.765625 58.74765625 -31.765625 60.39765625 -31.765625 62.09765625 C-31.435625 62.09765625 -31.105625 62.09765625 -30.765625 62.09765625 C-30.765625 60.44765625 -30.765625 58.79765625 -30.765625 57.09765625 C-31.095625 57.09765625 -31.425625 57.09765625 -31.765625 57.09765625 Z M-11.765625 60.09765625 C-10.765625 63.09765625 -10.765625 63.09765625 -10.765625 63.09765625 Z M-32.765625 62.09765625 C-31.765625 64.09765625 -31.765625 64.09765625 -31.765625 64.09765625 Z " fill="#FA5B3C" transform="translate(107.765625,87.90234375)"/>
<path d="M0 0 C0.88945313 0.00322266 1.77890625 0.00644531 2.6953125 0.00976562 C3.61570313 0.01814453 4.53609375 0.02652344 5.484375 0.03515625 C6.42023438 0.03966797 7.35609375 0.04417969 8.3203125 0.04882812 C10.62506541 0.06058707 12.92968727 0.07702199 15.234375 0.09765625 C14.904375 0.75765625 14.574375 1.41765625 14.234375 2.09765625 C14.234375 2.75765625 14.234375 3.41765625 14.234375 4.09765625 C13.34298828 4.16496948 13.34298828 4.16496948 12.43359375 4.23364258 C9.69942387 4.44705028 6.96705518 4.67848043 4.234375 4.91015625 C3.29980469 4.98041016 2.36523438 5.05066406 1.40234375 5.12304688 C-6.91811027 5.85035929 -13.61032106 7.14492772 -19.515625 13.53515625 C-20.23234375 14.29699219 -20.9490625 15.05882813 -21.6875 15.84375 C-22.37328125 16.58753906 -23.0590625 17.33132812 -23.765625 18.09765625 C-24.51328125 18.78988281 -25.2609375 19.48210937 -26.03125 20.1953125 C-28.10248974 22.03809697 -28.10248974 22.03809697 -27.765625 25.09765625 C-26.775625 24.76765625 -25.785625 24.43765625 -24.765625 24.09765625 C-22.515625 24.97265625 -22.515625 24.97265625 -20.765625 27.09765625 C-20.62193634 31.56890919 -21.68721342 35.78400995 -22.765625 40.09765625 C-18.475625 40.09765625 -14.185625 40.09765625 -9.765625 40.09765625 C-9.58 37.71546875 -9.58 37.71546875 -9.390625 35.28515625 C-9.10379965 31.60423094 -8.87389555 30.26006207 -6.765625 27.09765625 C-6.105625 27.09765625 -5.445625 27.09765625 -4.765625 27.09765625 C-3.56767103 33.46268879 -3.65683698 37.35835528 -6.765625 43.09765625 C-8.92467319 45.25670444 -13.65447045 44.3292516 -16.640625 44.34765625 C-17.46949219 44.36828125 -18.29835937 44.38890625 -19.15234375 44.41015625 C-20.34923828 44.41789062 -20.34923828 44.41789062 -21.5703125 44.42578125 C-22.66835205 44.4397998 -22.66835205 44.4397998 -23.78857422 44.45410156 C-26.34046234 43.994018 -27.23765985 43.16418889 -28.765625 41.09765625 C-28.62109375 38.1796875 -28.62109375 38.1796875 -27.953125 34.91015625 C-27.74042969 33.82347656 -27.52773437 32.73679688 -27.30859375 31.6171875 C-27.12941406 30.78574219 -26.95023438 29.95429687 -26.765625 29.09765625 C-27.425625 28.76765625 -28.085625 28.43765625 -28.765625 28.09765625 C-28.765625 28.75765625 -28.765625 29.41765625 -28.765625 30.09765625 C-29.425625 30.09765625 -30.085625 30.09765625 -30.765625 30.09765625 C-31.095625 32.40765625 -31.425625 34.71765625 -31.765625 37.09765625 C-32.425625 36.76765625 -33.085625 36.43765625 -33.765625 36.09765625 C-33.765625 35.43765625 -33.765625 34.77765625 -33.765625 34.09765625 C-34.28511719 34.43539062 -34.80460937 34.773125 -35.33984375 35.12109375 C-41.2680358 38.91250678 -41.2680358 38.91250678 -44.453125 40.09765625 C-48.6401221 41.90824959 -51.17157218 44.82468591 -53.078125 48.91015625 C-53.305 49.63203125 -53.531875 50.35390625 -53.765625 51.09765625 C-54.095625 51.09765625 -54.425625 51.09765625 -54.765625 51.09765625 C-55.10225562 47.3947194 -55.24298515 45.70231244 -52.890625 42.72265625 C-50.765625 41.09765625 -50.765625 41.09765625 -48.765625 41.09765625 C-48.270625 38.12765625 -48.270625 38.12765625 -47.765625 35.09765625 C-46.280625 34.60265625 -46.280625 34.60265625 -44.765625 34.09765625 C-44.105625 33.43765625 -43.445625 32.77765625 -42.765625 32.09765625 C-41.445625 32.09765625 -40.125625 32.09765625 -38.765625 32.09765625 C-37.6314608 29.82932784 -36.85766864 27.66832683 -36.453125 25.16015625 C-35.53941049 22.41901271 -33.79026935 21.1223006 -31.765625 19.09765625 C-30.9783572 16.95945965 -30.9783572 16.95945965 -30.765625 15.09765625 C-29.445625 14.76765625 -28.125625 14.43765625 -26.765625 14.09765625 C-26.765625 13.43765625 -26.765625 12.77765625 -26.765625 12.09765625 C-26.105625 12.09765625 -25.445625 12.09765625 -24.765625 12.09765625 C-24.765625 11.43765625 -24.765625 10.77765625 -24.765625 10.09765625 C-22.47633447 8.92611332 -20.18444138 7.76027551 -17.890625 6.59765625 C-17.23964844 6.26378906 -16.58867188 5.92992188 -15.91796875 5.5859375 C-10.9921875 3.09765625 -10.9921875 3.09765625 -8.765625 3.09765625 C-8.765625 2.43765625 -8.765625 1.77765625 -8.765625 1.09765625 C-5.76855805 0.22802538 -3.11605974 -0.01997474 0 0 Z M-35.765625 25.09765625 C-34.765625 27.09765625 -34.765625 27.09765625 -34.765625 27.09765625 Z M-5.765625 32.09765625 C-4.765625 36.09765625 -4.765625 36.09765625 -4.765625 36.09765625 Z " fill="#E03322" transform="translate(107.765625,87.90234375)"/>
<path d="M0 0 C2.296875 -0.30078125 2.296875 -0.30078125 5 0 C6.765625 2.08203125 6.765625 2.08203125 8.25 4.8125 C8.75015625 5.70582031 9.2503125 6.59914062 9.765625 7.51953125 C12.36160658 12.73613979 12.94517434 17.68050217 11.3515625 23.27734375 C9.11197105 28.87632238 5.88717569 33.39892318 1 37 C-0.32986274 37.34692071 -1.66276294 37.68268951 -3 38 C-3.33 38.66 -3.66 39.32 -4 40 C-4.66 39.67 -5.32 39.34 -6 39 C-6 39.66 -6 40.32 -6 41 C-46.59 41 -87.18 41 -129 41 C-129 40.34 -129 39.68 -129 39 C-130.485 39.495 -130.485 39.495 -132 40 C-132 39.34 -132 38.68 -132 38 C-132.99 37.67 -133.98 37.34 -135 37 C-136.1875 34.9375 -136.1875 34.9375 -137 33 C-136.236875 33.309375 -135.47375 33.61875 -134.6875 33.9375 C-129.92430506 35.82062358 -125.91239082 36.16825356 -120.84545898 36.20532227 C-119.59536041 36.22017166 -119.59536041 36.22017166 -118.32000732 36.23532104 C-115.54539858 36.26704785 -112.77077409 36.29179887 -109.99609375 36.31640625 C-108.04158643 36.33702715 -106.08708306 36.35802476 -104.13258362 36.37937927 C-100.00906724 36.42343663 -95.8855359 36.46429859 -91.76196289 36.50268555 C-86.58403594 36.55093391 -81.40618793 36.60473884 -76.22833824 36.66060829 C-66.28359278 36.76778615 -56.33886463 36.85915404 -46.39380455 36.93166542 C-40.95298158 36.9723858 -35.51268597 37.02866999 -30.07219219 37.10088825 C-26.865381 37.14093933 -23.65854808 37.16897224 -20.45158577 37.19370842 C-18.98099948 37.20765293 -17.51045206 37.22679393 -16.04000664 37.25146675 C-14.04776492 37.28422663 -12.05522214 37.29687284 -10.06274414 37.30834961 C-8.95596817 37.32127548 -7.8491922 37.33420135 -6.70887756 37.34751892 C-3.60628956 36.94949132 -2.87766295 36.41782946 -1 34 C3.65116279 29.11627907 3.65116279 29.11627907 7 28 C7.08144943 25.29105233 7.14070614 22.58458737 7.1875 19.875 C7.21263672 19.11445313 7.23777344 18.35390625 7.26367188 17.5703125 C7.34305994 11.43096911 6.15139956 7.27433668 1.8125 2.6875 C1.214375 2.130625 0.61625 1.57375 0 1 C0 0.67 0 0.34 0 0 Z " fill="#E59A8A" transform="translate(195,127)"/>
<path d="M0 0 C1.58294782 -0.05437607 3.16644256 -0.09296271 4.75 -0.125 C5.63171875 -0.14820313 6.5134375 -0.17140625 7.421875 -0.1953125 C10.82606594 0.06258075 12.9307116 1.31260031 15.75 3.125 C19.27638979 4.49637381 22.22083769 4.23994681 26 4 C26.99 3.34 27.98 2.68 29 2 C31.8125 1.734375 31.8125 1.734375 35 1.75 C36.051875 1.74484375 37.10375 1.7396875 38.1875 1.734375 C41 2 41 2 44 4 C45.65549531 4.38499891 47.3222433 4.72793135 49 5 C49 5.66 49 6.32 49 7 C50.6256807 6.69106068 52.25052748 6.3777305 53.875 6.0625 C55.23238281 5.80146484 55.23238281 5.80146484 56.6171875 5.53515625 C58.99956317 5.10036299 58.99956317 5.10036299 61 4 C63.2072923 3.92907158 65.41667452 3.91584975 67.625 3.9375 C68.81351562 3.94652344 70.00203125 3.95554688 71.2265625 3.96484375 C72.14179688 3.97644531 73.05703125 3.98804688 74 4 C74.33 3.34 74.66 2.68 75 2 C75.495 3.98 75.495 3.98 76 6 C75.42894531 6.10957031 74.85789062 6.21914062 74.26953125 6.33203125 C68.14785635 7.52911553 62.11589648 8.94279045 56.078125 10.51171875 C51.2722047 11.2740792 47.65668778 10.30093255 43.2578125 8.4453125 C38.45185255 6.56452075 33.9727059 6.69921704 28.875 6.875 C23.44394713 7.01218856 18.35134423 7.14045041 13 6 C13 5.34 13 4.68 13 4 C11.72382813 4.15597656 10.44765625 4.31195313 9.1328125 4.47265625 C7.46357909 4.66958828 5.79430616 4.86618554 4.125 5.0625 C3.28324219 5.16626953 2.44148438 5.27003906 1.57421875 5.37695312 C0.36572266 5.51713867 0.36572266 5.51713867 -0.8671875 5.66015625 C-1.61081543 5.74918213 -2.35444336 5.83820801 -3.12060547 5.92993164 C-5 6 -5 6 -7 5 C-8.70363822 4.77377919 -10.41328701 4.59111527 -12.125 4.4375 C-13.03507812 4.35371094 -13.94515625 4.26992187 -14.8828125 4.18359375 C-15.58148438 4.12300781 -16.28015625 4.06242188 -17 4 C-16.95875 4.928125 -16.9175 5.85625 -16.875 6.8125 C-17 10 -17 10 -19 13 C-22.125 13.1875 -22.125 13.1875 -25 13 C-23.68 12.34 -22.36 11.68 -21 11 C-21.04125 10.2575 -21.0825 9.515 -21.125 8.75 C-20.99177217 5.81898785 -20.75748519 4.34331358 -19 2 C-15.91892953 0.8556024 -13.88769039 1.01663846 -10.625 1.5 C-6.81570868 2.02541949 -3.76385949 1.69132113 0 1 C0 0.67 0 0.34 0 0 Z " fill="#BD7564" transform="translate(121,141)"/>
<path d="M0 0 C0.66 0.33 1.32 0.66 2 1 C2 1.66 2 2.32 2 3 C1.01 3 0.02 3 -1 3 C-1.309375 4.093125 -1.61875 5.18625 -1.9375 6.3125 C-2.58337897 8.55407994 -3.2623117 10.7869351 -4 13 C-0.535 14.485 -0.535 14.485 3 16 C3.07972012 20.7034873 2.93491183 24.32544083 2 29 C7.94 29.33 13.88 29.66 20 30 C19.67 30.66 19.34 31.32 19 32 C16.06195004 32.08086376 13.12611925 32.1404283 10.1875 32.1875 C9.35412109 32.21263672 8.52074219 32.23777344 7.66210938 32.26367188 C6.85966797 32.27333984 6.05722656 32.28300781 5.23046875 32.29296875 C4.49207764 32.3086792 3.75368652 32.32438965 2.99291992 32.34057617 C0.42153097 31.90114366 -0.46633489 31.0807049 -2 29 C-1.85546875 26.08203125 -1.85546875 26.08203125 -1.1875 22.8125 C-0.97480469 21.72582031 -0.76210937 20.63914062 -0.54296875 19.51953125 C-0.36378906 18.68808594 -0.18460938 17.85664062 0 17 C-0.66 16.67 -1.32 16.34 -2 16 C-2 16.66 -2 17.32 -2 18 C-2.66 18 -3.32 18 -4 18 C-4.33 20.31 -4.66 22.62 -5 25 C-5.66 24.67 -6.32 24.34 -7 24 C-7 23.34 -7 22.68 -7 22 C-7.51949219 22.33773437 -8.03898437 22.67546875 -8.57421875 23.0234375 C-14.5024108 26.81485053 -14.5024108 26.81485053 -17.6875 28 C-21.8744971 29.81059334 -24.40594718 32.72702966 -26.3125 36.8125 C-26.539375 37.534375 -26.76625 38.25625 -27 39 C-27.33 39 -27.66 39 -28 39 C-28.33663062 35.29706315 -28.47736015 33.60465619 -26.125 30.625 C-24 29 -24 29 -22 29 C-21.67 27.02 -21.34 25.04 -21 23 C-20.01 22.67 -19.02 22.34 -18 22 C-17.34 21.34 -16.68 20.68 -16 20 C-14.68 20 -13.36 20 -12 20 C-10.8658358 17.73167159 -10.09204364 15.57067058 -9.6875 13.0625 C-8.77378549 10.32135646 -7.02464435 9.02464435 -5 7 C-4.2127322 4.8618034 -4.2127322 4.8618034 -4 3 C-2.68 2.67 -1.36 2.34 0 2 C0 1.34 0 0.68 0 0 Z M-9 13 C-8 15 -8 15 -8 15 Z " fill="#94342E" transform="translate(81,100)"/>
<path d="M0 0 C1.98 0 3.96 0 6 0 C6.02714735 2.22909871 6.04646254 4.45829367 6.0625 6.6875 C6.07410156 7.92886719 6.08570312 9.17023438 6.09765625 10.44921875 C6.01478673 13.46235454 5.70839449 16.08275339 5 19 C5.63164063 18.9278125 6.26328125 18.855625 6.9140625 18.78125 C16.13221483 17.8248999 25.90286697 16.85348547 35 19 C35 19.66 35 20.32 35 21 C35.62567871 20.98428955 36.25135742 20.9685791 36.89599609 20.95239258 C39.72223931 20.89015325 42.54833861 20.85104538 45.375 20.8125 C46.35984375 20.78736328 47.3446875 20.76222656 48.359375 20.73632812 C49.77089844 20.72182617 49.77089844 20.72182617 51.2109375 20.70703125 C52.08024902 20.6913208 52.94956055 20.67561035 53.84521484 20.65942383 C54.55629395 20.77181396 55.26737305 20.8842041 56 21 C56.66 21.99 57.32 22.98 58 24 C38.24265813 27.46837349 38.24265813 27.46837349 31.6875 24.5 C27.08329021 22.6271011 23.41808249 22.9053152 18.50390625 23.0078125 C14.88362218 22.99974052 11.40582695 22.75022532 7.8125 22.3125 C6.21341797 22.12107422 6.21341797 22.12107422 4.58203125 21.92578125 C2 21 2 21 0.62109375 18.671875 C-0.6045584 13.39925819 0.38989756 8.6981844 3 4 C3 3.01 3 2.02 3 1 C2.34 1 1.68 1 1 1 C0.67 1.99 0.34 2.98 0 4 C0 2.68 0 1.36 0 0 Z M36 24 C36 24.33 36 24.66 36 25 C38.97 25 41.94 25 45 25 C45 24.67 45 24.34 45 24 C42.03 24 39.06 24 36 24 Z " fill="#B44C3B" transform="translate(104,115)"/>
<path d="M0 0 C0.88945313 0.00322266 1.77890625 0.00644531 2.6953125 0.00976562 C4.07589844 0.02233398 4.07589844 0.02233398 5.484375 0.03515625 C6.42023438 0.03966797 7.35609375 0.04417969 8.3203125 0.04882812 C10.62506541 0.06058707 12.92968727 0.07702199 15.234375 0.09765625 C14.904375 0.75765625 14.574375 1.41765625 14.234375 2.09765625 C14.234375 2.75765625 14.234375 3.41765625 14.234375 4.09765625 C13.64011719 4.14253174 13.04585937 4.18740723 12.43359375 4.23364258 C9.69942387 4.44705028 6.96705518 4.67848043 4.234375 4.91015625 C3.29980469 4.98041016 2.36523438 5.05066406 1.40234375 5.12304688 C-6.81870523 5.84167004 -13.46762086 7.39009 -19.765625 13.09765625 C-19.765625 12.43765625 -19.765625 11.77765625 -19.765625 11.09765625 C-21.415625 11.42765625 -23.065625 11.75765625 -24.765625 12.09765625 C-24.765625 11.43765625 -24.765625 10.77765625 -24.765625 10.09765625 C-22.47633447 8.92611332 -20.18444138 7.76027551 -17.890625 6.59765625 C-17.23964844 6.26378906 -16.58867188 5.92992188 -15.91796875 5.5859375 C-10.9921875 3.09765625 -10.9921875 3.09765625 -8.765625 3.09765625 C-8.765625 2.43765625 -8.765625 1.77765625 -8.765625 1.09765625 C-5.76855805 0.22802538 -3.11605974 -0.01997474 0 0 Z " fill="#9F4439" transform="translate(107.765625,87.90234375)"/>
<path d="M0 0 C2.296875 -0.30078125 2.296875 -0.30078125 5 0 C6.765625 2.08203125 6.765625 2.08203125 8.25 4.8125 C8.75015625 5.70582031 9.2503125 6.59914062 9.765625 7.51953125 C12.36160658 12.73613979 12.94517434 17.68050217 11.3515625 23.27734375 C9.09249334 28.92501666 5.89481375 33.33981561 1 37 C-1.9375 37.9375 -1.9375 37.9375 -4 38 C-1.44601719 33.83795394 0.95054353 30.77068074 5 28 C5.66 28 6.32 28 7 28 C7.08144943 25.29105233 7.14070614 22.58458737 7.1875 19.875 C7.21263672 19.11445313 7.23777344 18.35390625 7.26367188 17.5703125 C7.34305994 11.43096911 6.15139956 7.27433668 1.8125 2.6875 C1.214375 2.130625 0.61625 1.57375 0 1 C0 0.67 0 0.34 0 0 Z " fill="#CB8C62" transform="translate(195,127)"/>
<path d="M0 0 C0.66 0.33 1.32 0.66 2 1 C1.01 2.485 1.01 2.485 0 4 C-0.66 4 -1.32 4 -2 4 C-2.33 4.99 -2.66 5.98 -3 7 C-3.99 7.495 -3.99 7.495 -5 8 C-5.26932521 12.65052872 -5.26932521 12.65052872 -4 17 C-4.2475 18.0209375 -4.2475 18.0209375 -4.5 19.0625 C-5.19582785 23.15048864 -4.57778858 26.91992374 -4 31 C-3.34 31 -2.68 31 -2 31 C-0.515 34.465 -0.515 34.465 1 38 C-4.2058747 35.80924145 -6.6298194 32.00129852 -9 27 C-10.74518928 20.11061405 -10.55344677 14.24481418 -7.25390625 7.91015625 C-5.44865752 5.16010445 -3.48768392 3.15151041 -1 1 C-0.67 0.67 -0.34 0.34 0 0 Z " fill="#B3372D" transform="translate(59,125)"/>
<path d="M0 0 C4.75 -0.125 4.75 -0.125 7 1 C7.78375 1.144375 8.5675 1.28875 9.375 1.4375 C13.06087393 2.22733013 15.33469045 3.33469045 18 6 C18.804375 6.433125 19.60875 6.86625 20.4375 7.3125 C23.32170446 9.21185415 24.43936732 10.96087321 26 14 C21.92222093 14 20.83928655 12.23651429 18.01171875 9.5078125 C13.10383832 5.82928465 7.52068323 5.63087052 1.625 5.375 C0.88894531 5.33632812 0.15289062 5.29765625 -0.60546875 5.2578125 C-2.40327406 5.16442002 -4.20160108 5.0811629 -6 5 C-5.67 3.68 -5.34 2.36 -5 1 C-3.35 1.33 -1.7 1.66 0 2 C0 1.34 0 0.68 0 0 Z " fill="#D26848" transform="translate(159,100)"/>
<path d="M0 0 C0.66 1.32 1.32 2.64 2 4 C1.14341797 4.16435547 1.14341797 4.16435547 0.26953125 4.33203125 C-5.85214365 5.52911553 -11.88410352 6.94279045 -17.921875 8.51171875 C-21.27533847 9.04367679 -23.71672963 8.81846568 -27 8 C-28.875 6.4375 -28.875 6.4375 -30 5 C-28.35 4.34 -26.7 3.68 -25 3 C-25 3.66 -25 4.32 -25 5 C-23.3743193 4.69106068 -21.74947252 4.3777305 -20.125 4.0625 C-19.22007812 3.88847656 -18.31515625 3.71445313 -17.3828125 3.53515625 C-15.00043683 3.10036299 -15.00043683 3.10036299 -13 2 C-10.7927077 1.92907158 -8.58332548 1.91584975 -6.375 1.9375 C-5.18648437 1.94652344 -3.99796875 1.95554688 -2.7734375 1.96484375 C-1.85820312 1.97644531 -0.94296875 1.98804688 0 2 C0 1.34 0 0.68 0 0 Z " fill="#CF764C" transform="translate(195,143)"/>
<path d="M0 0 C30.69 0 61.38 0 93 0 C92.67 0.66 92.34 1.32 92 2 C91.01 1.505 91.01 1.505 90 1 C90 1.66 90 2.32 90 3 C89.12588911 2.75739488 89.12588911 2.75739488 88.23411942 2.50988865 C84.74110312 1.71268446 81.21742969 1.82066507 77.65136719 1.79467773 C76.81197601 1.78477814 75.97258484 1.77487854 75.10775757 1.76467896 C72.33749192 1.73313002 69.56720914 1.70833265 66.796875 1.68359375 C64.87444619 1.66301852 62.95202184 1.6420219 61.02960205 1.62062073 C55.97277445 1.56545884 50.91590643 1.51602361 45.85900879 1.46777344 C40.69763597 1.41751546 35.53632179 1.36185182 30.375 1.30664062 C20.2500501 1.19913101 10.12504927 1.09767005 0 1 C0 0.67 0 0.34 0 0 Z " fill="#A75040" transform="translate(99,165)"/>
<path d="M0 0 C4.62 0 9.24 0 14 0 C15.95278062 3.90556124 16.25102058 4.53498771 15.6875 8.5 C15.58824219 9.2528125 15.48898438 10.005625 15.38671875 10.78125 C15.01948342 12.88821634 14.54942434 14.93378882 14 17 C14.66 17.33 15.32 17.66 16 18 C12.125 17.125 12.125 17.125 11 16 C10.76572222 13.98405418 10.58663876 11.961526 10.4375 9.9375 C10.35371094 8.83277344 10.26992187 7.72804687 10.18359375 6.58984375 C10.12300781 5.73519531 10.06242187 4.88054687 10 4 C6.7 3.67 3.4 3.34 0 3 C0 2.01 0 1.02 0 0 Z M14 5 C15 9 15 9 15 9 Z M13 10 C14 13 14 13 14 13 Z " fill="#973225" transform="translate(84,134)"/>
<path d="M0 0 C-0.08745575 2.39749384 -0.19437075 4.79148221 -0.3125 7.1875 C-0.34633789 8.19780273 -0.34633789 8.19780273 -0.38085938 9.22851562 C-0.61396732 13.57279997 -1.23639303 16.58805869 -4 20 C-7.15989415 20.38692581 -9.13879744 20.43060128 -12 19 C-11.67 17.68 -11.34 16.36 -11 15 C-11 15.66 -11 16.32 -11 17 C-10.01 16.67 -9.02 16.34 -8 16 C-7.07463404 12.80882701 -7.07463404 12.80882701 -6.5 9.0625 C-5.84375 5.22265625 -5.84375 5.22265625 -5 2 C-2 0 -2 0 0 0 Z M-5 6 C-4 10 -4 10 -4 10 Z M-6 11 C-6 12.65 -6 14.3 -6 16 C-5.67 16 -5.34 16 -5 16 C-5 14.35 -5 12.7 -5 11 C-5.33 11 -5.66 11 -6 11 Z M-7 16 C-6 18 -6 18 -6 18 Z " fill="#CC2F26" transform="translate(82,134)"/>
<path d="M0 0 C0 0.66 0 1.32 0 2 C0.62567871 1.98428955 1.25135742 1.9685791 1.89599609 1.95239258 C4.72223931 1.89015325 7.54833861 1.85104538 10.375 1.8125 C11.35984375 1.78736328 12.3446875 1.76222656 13.359375 1.73632812 C14.77089844 1.72182617 14.77089844 1.72182617 16.2109375 1.70703125 C17.08024902 1.6913208 17.94956055 1.67561035 18.84521484 1.65942383 C19.9118335 1.82800903 19.9118335 1.82800903 21 2 C21.99 3.485 21.99 3.485 23 5 C1.98690383 8.68881939 1.98690383 8.68881939 -7 4 C-7 3.01 -7 2.02 -7 1 C-4 0 -4 0 0 0 Z M1 5 C1 5.33 1 5.66 1 6 C3.97 6 6.94 6 10 6 C10 5.67 10 5.34 10 5 C7.03 5 4.06 5 1 5 Z " fill="#924D3B" transform="translate(139,134)"/>
<path d="M0 0 C0.66 0 1.32 0 2 0 C2.07972012 4.7034873 1.93491183 8.32544083 1 13 C6.94 13.33 12.88 13.66 19 14 C18.67 14.66 18.34 15.32 18 16 C15.06195004 16.08086376 12.12611925 16.1404283 9.1875 16.1875 C8.35412109 16.21263672 7.52074219 16.23777344 6.66210938 16.26367188 C5.45844727 16.27817383 5.45844727 16.27817383 4.23046875 16.29296875 C3.12288208 16.31653442 3.12288208 16.31653442 1.99291992 16.34057617 C-0.5776564 15.90128253 -1.46399761 15.07740279 -3 13 C-2.890625 10.1171875 -2.890625 10.1171875 -2.25 6.875 C-2.04890625 5.79992187 -1.8478125 4.72484375 -1.640625 3.6171875 C-1 1 -1 1 0 0 Z " fill="#421612" transform="translate(82,116)"/>
<path d="M0 0 C1.051875 -0.00515625 2.10375 -0.0103125 3.1875 -0.015625 C6 0.25 6 0.25 9 2.25 C9.66 2.58 10.32 2.91 11 3.25 C10.01 4.735 10.01 4.735 9 6.25 C8.36835938 6.1778125 7.73671875 6.105625 7.0859375 6.03125 C-0.62568579 5.23119686 -8.25180183 5.14819886 -16 5.25 C-16.33 4.59 -16.66 3.93 -17 3.25 C-14.02148438 2.95703125 -14.02148438 2.95703125 -11.04296875 2.6640625 C-6.7615165 1.79631118 -4.71172264 -0.02309668 0 0 Z " fill="#CA7D63" transform="translate(156,142.75)"/>
<path d="M0 0 C0.33 0 0.66 0 1 0 C0.50269138 6.8379935 -0.92226296 13.26095803 -2.62792969 19.88256836 C-3.66299164 24.02329098 -4.21029554 27.69233336 -4 32 C-4.33 31.34 -4.66 30.68 -5 30 C-5.66 30 -6.32 30 -7 30 C-6.33119795 10.99679693 -6.33119795 10.99679693 -1 3 C-0.67 2.01 -0.34 1.02 0 0 Z " fill="#C54E4A" transform="translate(77,118)"/>
<path d="M0 0 C0.66 0.33 1.32 0.66 2 1 C2 1.66 2 2.32 2 3 C1.01 3 0.02 3 -1 3 C-1.309375 4.093125 -1.61875 5.18625 -1.9375 6.3125 C-2.58337897 8.55407994 -3.2623117 10.7869351 -4 13 C-2.02 13.66 -0.04 14.32 2 15 C-1.08809695 16.76462683 -2.23312136 17 -6 17 C-6.99 17.33 -7.98 17.66 -9 18 C-9.8125 15.3125 -9.8125 15.3125 -10 12 C-7.625 9.375 -7.625 9.375 -5 7 C-4.13880866 4.82653432 -4.13880866 4.82653432 -4 3 C-2.68 2.67 -1.36 2.34 0 2 C0 1.34 0 0.68 0 0 Z M-9 13 C-8 15 -8 15 -8 15 Z " fill="#B4483B" transform="translate(81,100)"/>
<path d="M0 0 C2.2477975 2.05233685 3.0022242 3.00667261 4 6 C5.96952906 7.13843108 7.99322372 7.96086149 10.08984375 8.83984375 C12.39934441 10.24254661 13.01378258 11.5267113 14 14 C12.54096742 13.69078116 11.08279278 13.37751201 9.625 13.0625 C8.81289062 12.88847656 8.00078125 12.71445313 7.1640625 12.53515625 C5 12 5 12 3 11 C3 10.34 3 9.68 3 9 C2.34 9 1.68 9 1 9 C-1.14809171 5.77786243 -1.29386153 4.72224599 -1 1 C-0.67 0.67 -0.34 0.34 0 0 Z " fill="#70472E" transform="translate(185,114)"/>
<path d="M0 0 C0.66 0 1.32 0 2 0 C2.2236337 1.41433206 2.42826476 2.83167618 2.625 4.25 C2.79902344 5.43335937 2.79902344 5.43335937 2.9765625 6.640625 C3.00351634 9.35397779 2.37095578 10.69206005 1 13 C0.67 13.66 0.34 14.32 0 15 C-4.62 15 -9.24 15 -14 15 C-14 14.67 -14 14.34 -14 14 C-8.555 13.505 -8.555 13.505 -3 13 C-2.87625 11.411875 -2.7525 9.82375 -2.625 8.1875 C-2.33817465 4.50657469 -2.10827055 3.16240582 0 0 Z M1 5 C2 9 2 9 2 9 Z " fill="#D84A39" transform="translate(101,115)"/>
<path d="M0 0 C0.33 0 0.66 0 1 0 C1.13569801 7.32769249 -1.73657625 10.67526417 -6.578125 15.99609375 C-9.1577521 18.13052714 -10.71000794 18.67916744 -14 19 C-11.44601719 14.83795394 -9.04945647 11.77068074 -5 9 C-4.34 9 -3.68 9 -3 9 C-3 7.02 -3 5.04 -3 3 C-2.01 3 -1.02 3 0 3 C0 2.01 0 1.02 0 0 Z " fill="#D8A988" transform="translate(205,146)"/>
<path d="M0 0 C1.32 0.33 2.64 0.66 4 1 C4.33 3.97 4.66 6.94 5 10 C5.66 10 6.32 10 7 10 C7.99 12.31 8.98 14.62 10 17 C4.86066025 14.89957419 2.46605496 10.81122488 0 6 C-0.375 2.4375 -0.375 2.4375 0 0 Z " fill="#C7554C" transform="translate(50,146)"/>
<path d="M0 0 C13.86 0 27.72 0 42 0 C41.67 0.66 41.34 1.32 41 2 C40.34 1.67 39.68 1.34 39 1 C39 1.66 39 2.32 39 3 C38.5059668 2.84152588 38.01193359 2.68305176 37.50292969 2.51977539 C34.00220245 1.79279058 30.51472969 1.76349754 26.953125 1.68359375 C26.18192322 1.66281265 25.41072144 1.64203156 24.6161499 1.62062073 C22.16085428 1.55541428 19.70545479 1.49637516 17.25 1.4375 C15.58202065 1.39428726 13.91405168 1.3506721 12.24609375 1.30664062 C8.16416804 1.19976264 4.08213818 1.09841434 0 1 C0 0.67 0 0.34 0 0 Z " fill="#B86E53" transform="translate(150,165)"/>
<path d="M0 0 C3.3 0.33 6.6 0.66 10 1 C9.34 2.32 8.68 3.64 8 5 C2.15324132 6.59985934 -4.10989366 6.17802127 -10 5 C-6.5647952 2.70986347 -5.014669 2.82157027 -1 3 C-0.67 2.01 -0.34 1.02 0 0 Z " fill="#996A4F" transform="translate(182,136)"/>
<path d="M0 0 C4.91892756 1.19973843 7.72459826 3.23793588 11.2890625 6.66015625 C13.18657257 8.14610592 14.64772327 8.58398599 17 9 C17 9.99 17 10.98 17 12 C14.8125 12.3125 14.8125 12.3125 12 12 C9.12425455 9.52552136 7.10382653 7.1557398 5 4 C4.319375 3.835 3.63875 3.67 2.9375 3.5 C2.298125 3.335 1.65875 3.17 1 3 C0.67 2.01 0.34 1.02 0 0 Z " fill="#D08265" transform="translate(134,94)"/>
<path d="M0 0 C2.97 0.33 5.94 0.66 9 1 C6 4 6 4 3.625 4.875 C-0.71585187 6.73536509 -3.32775616 9.55947749 -5.3125 13.8125 C-5.539375 14.534375 -5.76625 15.25625 -6 16 C-6.33 16 -6.66 16 -7 16 C-7.33663062 12.29706315 -7.47736015 10.60465619 -5.125 7.625 C-3 6 -3 6 -1 6 C-0.67 4.02 -0.34 2.04 0 0 Z " fill="#CF3027" transform="translate(60,123)"/>
<path d="M0 0 C2.10814567 4.21629134 2.17700355 6.39790775 2 11 C2.66 11.33 3.32 11.66 4 12 C2 14 2 14 -1 14.1875 C-4 14 -4 14 -6 13 C-5.67 11.68 -5.34 10.36 -5 9 C-5 9.66 -5 10.32 -5 11 C-4.01 10.67 -3.02 10.34 -2 10 C-1.34 6.7 -0.68 3.4 0 0 Z M0 5 C0 6.65 0 8.3 0 10 C0.33 10 0.66 10 1 10 C1 8.35 1 6.7 1 5 C0.67 5 0.34 5 0 5 Z M-1 10 C0 12 0 12 0 12 Z " fill="#8B342D" transform="translate(76,140)"/>
<path d="M0 0 C1.4540625 0.0309375 1.4540625 0.0309375 2.9375 0.0625 C2.6075 1.0525 2.2775 2.0425 1.9375 3.0625 C0.6175 3.0625 -0.7025 3.0625 -2.0625 3.0625 C-2.02125 3.990625 -1.98 4.91875 -1.9375 5.875 C-2.0625 9.0625 -2.0625 9.0625 -4.0625 12.0625 C-7.1875 12.25 -7.1875 12.25 -10.0625 12.0625 C-8.7425 11.4025 -7.4225 10.7425 -6.0625 10.0625 C-6.10375 9.32 -6.145 8.5775 -6.1875 7.8125 C-5.97542333 3.14681321 -4.84835871 0.0989461 0 0 Z " fill="#B86554" transform="translate(106.0625,141.9375)"/>
<path d="M0 0 C0.66 1.32 1.32 2.64 2 4 C-1.1505334 5.0501778 -3.26380795 5.06881235 -6.5625 5 C-12.11013908 4.94594262 -17.49798962 5.318335 -23 6 C-23 5.67 -23 5.34 -23 5 C-19.97265625 4.26757812 -19.97265625 4.26757812 -16.9453125 3.53515625 C-14.9414343 3.05153008 -14.9414343 3.05153008 -13 2 C-10.7927077 1.92907158 -8.58332548 1.91584975 -6.375 1.9375 C-5.18648437 1.94652344 -3.99796875 1.95554688 -2.7734375 1.96484375 C-1.85820312 1.97644531 -0.94296875 1.98804688 0 2 C0 1.34 0 0.68 0 0 Z " fill="#D49979" transform="translate(195,143)"/>
<path d="M0 0 C1.98 0 3.96 0 6 0 C6.34615998 5.65394631 5.43425238 9.03006806 3 14 C2.34 13.34 1.68 12.68 1 12 C1.31396243 8.04407344 1.74827818 4.75516546 3 1 C2.34 1 1.68 1 1 1 C0.67 1.99 0.34 2.98 0 4 C0 2.68 0 1.36 0 0 Z " fill="#9D5542" transform="translate(104,115)"/>
<path d="M0 0 C1.02787125 0.00212242 1.02787125 0.00212242 2.07650757 0.00428772 C4.26719511 0.0098895 6.4577808 0.02244219 8.6484375 0.03515625 C10.13281102 0.04017103 11.61718615 0.04473397 13.1015625 0.04882812 C16.74222065 0.05985948 20.38281914 0.07712526 24.0234375 0.09765625 C24.0234375 0.42765625 24.0234375 0.75765625 24.0234375 1.09765625 C14.7834375 1.42765625 5.5434375 1.75765625 -3.9765625 2.09765625 C-3.9765625 2.42765625 -3.9765625 2.75765625 -3.9765625 3.09765625 C-5.6265625 3.09765625 -7.2765625 3.09765625 -8.9765625 3.09765625 C-8.9765625 2.43765625 -8.9765625 1.77765625 -8.9765625 1.09765625 C-6.00296801 -0.389141 -3.31357071 -0.0134698 0 0 Z " fill="#7A2B23" transform="translate(74.9765625,164.90234375)"/>
<path d="M0 0 C0.33 0 0.66 0 1 0 C0.48517081 5.852795 -0.45357192 11.3297637 -2 17 C-2.66 17 -3.32 17 -4 17 C-4 13.7 -4 10.4 -4 7 C-3.34 6.67 -2.68 6.34 -2 6 C-1.27306096 4.02111039 -0.60183749 2.02045442 0 0 Z " fill="#C86E65" transform="translate(77,118)"/>
<path d="M0 0 C1.03159626 3.09478879 0.97482862 4.52631393 0.5625 7.6875 C0.46066406 8.49574219 0.35882813 9.30398437 0.25390625 10.13671875 C0.17011719 10.75160156 0.08632812 11.36648437 0 12 C2.31 12.33 4.62 12.66 7 13 C6.67 13.66 6.34 14.32 6 15 C0.25 14.25 0.25 14.25 -2 12 C-2.01171875 9.6875 -2.01171875 9.6875 -1.6875 7 C-1.58824219 6.113125 -1.48898438 5.22625 -1.38671875 4.3125 C-1 2 -1 2 0 0 Z " fill="#E2332C" transform="translate(70,141)"/>
<path d="M0 0 C4.75 -0.125 4.75 -0.125 7 1 C8.66194453 1.35613097 10.328451 1.69208308 12 2 C12 2.66 12 3.32 12 4 C6.72 3.67 1.44 3.34 -4 3 C-2.68 2.67 -1.36 2.34 0 2 C0 1.34 0 0.68 0 0 Z " fill="#A07768" transform="translate(159,100)"/>
<path d="M0 0 C7.26 0 14.52 0 22 0 C22 0.66 22 1.32 22 2 C22.66 2.33 23.32 2.66 24 3 C21.66705225 3.04241723 19.33297433 3.04092937 17 3 C16.67 2.67 16.34 2.34 16 2 C13.30764224 1.76321284 10.63501844 1.57801975 7.9375 1.4375 C7.17888672 1.39431641 6.42027344 1.35113281 5.63867188 1.30664062 C3.75934562 1.20026367 1.87969756 1.09960066 0 1 C0 0.67 0 0.34 0 0 Z " fill="#C09583" transform="translate(105,89)"/>
<path d="M0 0 C2.70931419 0.15481795 4.46584039 0.48172081 6.4453125 2.40234375 C7.67679642 3.89771708 8.8429837 5.4462924 10 7 C9.34 7.66 8.68 8.32 8 9 C6.66079162 7.88200014 5.32877444 6.75538103 4 5.625 C2.88625 4.68527344 2.88625 4.68527344 1.75 3.7265625 C1.1725 3.15679687 0.595 2.58703125 0 2 C0 1.34 0 0.68 0 0 Z " fill="#886F5C" transform="translate(175,106)"/>
<path d="M0 0 C1.62463842 -0.05395478 3.24978541 -0.09277195 4.875 -0.125 C5.77992187 -0.14820313 6.68484375 -0.17140625 7.6171875 -0.1953125 C10 0 10 0 12 2 C9.03 2 6.06 2 3 2 C2.01 3.98 1.02 5.96 0 8 C-1.43088528 5.13822943 -0.59991697 3.06624227 0 0 Z " fill="#E54C31" transform="translate(104,145)"/>
<path d="M0 0 C0.66 0 1.32 0 2 0 C2.2236337 1.41433206 2.42826476 2.83167618 2.625 4.25 C2.74101563 5.03890625 2.85703125 5.8278125 2.9765625 6.640625 C3.00319395 9.32152459 2.36592084 10.72694089 1 13 C-0.2834998 8.9088444 -1.38021934 5.3091525 -1 1 C-0.67 0.67 -0.34 0.34 0 0 Z M1 5 C2 9 2 9 2 9 Z " fill="#984334" transform="translate(101,115)"/>
<path d="M0 0 C0.33 1.32 0.66 2.64 1 4 C-3.39453125 8.00390625 -3.39453125 8.00390625 -5 9 C-5.99 8.67 -6.98 8.34 -8 8 C-5.33333333 5.33333333 -2.66666667 2.66666667 0 0 Z " fill="#DD9972" transform="translate(199,156)"/>
<path d="M0 0 C-1.01176437 3.40320742 -1.64843582 4.75725331 -4.625 6.8125 C-5.40875 7.204375 -6.1925 7.59625 -7 8 C-6.75 5.125 -6.75 5.125 -6 2 C-3.84139132 0.46808416 -2.63707871 0 0 0 Z " fill="#E9402F" transform="translate(88,99)"/>
<path d="M0 0 C3 2 3 2 5 4 C7.32275177 4.40047444 9.65739357 4.7397104 12 5 C9 7 9 7 6.58984375 6.609375 C5.71457031 6.32578125 4.83929688 6.0421875 3.9375 5.75 C3.05964844 5.47671875 2.18179688 5.2034375 1.27734375 4.921875 C-1 4 -1 4 -3 2 C-2.01 2 -1.02 2 0 2 C0 1.34 0 0.68 0 0 Z " fill="#DA7B59" transform="translate(163,134)"/>
<path d="M0 0 C0.66 0.33 1.32 0.66 2 1 C1.01 2.485 1.01 2.485 0 4 C-0.66 4 -1.32 4 -2 4 C-2.33 4.99 -2.66 5.98 -3 7 C-4.4375 8.5625 -4.4375 8.5625 -6 10 C-6.66 10.66 -7.32 11.32 -8 12 C-7.49572053 7.58755464 -5.98672249 5.25025683 -3 2 C-2.01 1.34 -1.02 0.68 0 0 Z " fill="#C26965" transform="translate(59,125)"/>
<path d="M0 0 C0.99 0 1.98 0 3 0 C3 0.66 3 1.32 3 2 C5.97 2.33 8.94 2.66 12 3 C7.63624057 5.18187972 6.5342242 5.25414712 2 4 C0.125 2.4375 0.125 2.4375 -1 1 C-0.67 0.67 -0.34 0.34 0 0 Z " fill="#ED8352" transform="translate(166,147)"/>
<path d="M0 0 C0 0.66 0 1.32 0 2 C-5.34001821 3.33500455 -8.83955235 2.512545 -14 1 C-14 0.67 -14 0.34 -14 0 C-8.97703996 -1.13016601 -5.02125926 -0.77916092 0 0 Z " fill="#D6745C" transform="translate(122,144)"/>
<path d="M0 0 C0.763125 0.309375 1.52625 0.61875 2.3125 0.9375 C4.18789677 1.67893593 6.08684652 2.36228217 8 3 C8 3.66 8 4.32 8 5 C8.66 5.33 9.32 5.66 10 6 C8.35 6.33 6.7 6.66 5 7 C5 6.34 5 5.68 5 5 C4.01 4.67 3.02 4.34 2 4 C0.8125 1.9375 0.8125 1.9375 0 0 Z " fill="#A83836" transform="translate(58,160)"/>
<path d="M0 0 C2.31 0 4.62 0 7 0 C8.85776765 3.13498292 9.20140476 5.37471432 9 9 C8.01 8.34 7.02 7.68 6 7 C5.8125 4.375 5.8125 4.375 6 2 C3.03 1.505 3.03 1.505 0 1 C0 0.67 0 0.34 0 0 Z " fill="#8F5D5A" transform="translate(91,134)"/>
<path d="M0 0 C1.32 0.66 2.64 1.32 4 2 C3.01 2.495 3.01 2.495 2 3 C1.59270772 5.32156597 1.25561323 7.6568787 1 10 C-0.5625 8.25 -0.5625 8.25 -2 6 C-1.72330471 3.64809002 -1.05656463 2.11312926 0 0 Z " fill="#C13323" transform="translate(75,115)"/>
<path d="M0 0 C4.75 1.875 4.75 1.875 7 3 C6.01 4.485 6.01 4.485 5 6 C3.35 5.67 1.7 5.34 0 5 C0 3.35 0 1.7 0 0 Z " fill="#BF7053" transform="translate(160,143)"/>
<path d="M0 0 C0.66 0.33 1.32 0.66 2 1 C1.21625 1.721875 0.4325 2.44375 -0.375 3.1875 C-2.84412438 5.83299041 -3.93260278 7.60373611 -5 11 C-5.33 11 -5.66 11 -6 11 C-6.375 8.3125 -6.375 8.3125 -6 5 C-4.176017 2.93601924 -2.27236161 1.60958947 0 0 Z " fill="#E12923" transform="translate(59,128)"/>
<path d="M0 0 C0.66 0 1.32 0 2 0 C1.67 3.3 1.34 6.6 1 10 C0.34 9.67 -0.32 9.34 -1 9 C-0.67 6.03 -0.34 3.06 0 0 Z " fill="#070000" transform="translate(81,117)"/>
<path d="M0 0 C1.98 0.66 3.96 1.32 6 2 C6 2.99 6 3.98 6 5 C4.35 5 2.7 5 1 5 C1 4.34 1 3.68 1 3 C0.01 2.67 -0.98 2.34 -2 2 C-1.34 2 -0.68 2 0 2 C0 1.34 0 0.68 0 0 Z " fill="#A76754" transform="translate(133,142)"/>
<path d="M0 0 C0.66 0 1.32 0 2 0 C1.67 2.64 1.34 5.28 1 8 C-0.5625 6.75 -0.5625 6.75 -2 5 C-1.74853421 2.86254078 -1.54074221 1.54074221 0 0 Z " fill="#803F3A" transform="translate(79,135)"/>
<path d="M0 0 C0.66 0.66 1.32 1.32 2 2 C1.01 3.485 1.01 3.485 0 5 C-2.625 5.1875 -2.625 5.1875 -5 5 C-4.1875 3.0625 -4.1875 3.0625 -3 1 C-2.01 0.67 -1.02 0.34 0 0 Z " fill="#C67245" transform="translate(198,140)"/>
<path d="M0 0 C7.57142857 3 7.57142857 3 10 6 C7.69 5.34 5.38 4.68 3 4 C3 3.34 3 2.68 3 2 C2.01 2 1.02 2 0 2 C0 1.34 0 0.68 0 0 Z " fill="#E59E76" transform="translate(189,122)"/>
<path d="M0 0 C0 0.99 0 1.98 0 3 C-3.73487777 2.5020163 -5.81237635 2.12508244 -9 0 C-3.375 -1.125 -3.375 -1.125 0 0 Z " fill="#D1886A" transform="translate(175,104)"/>
<path d="M0 0 C-0.33 0.66 -0.66 1.32 -1 2 C-6.75 1.25 -6.75 1.25 -9 -1 C-5.23375329 -2.25541557 -3.62811066 -1.37061958 0 0 Z " fill="#9F5646" transform="translate(135,93)"/>
<path d="M0 0 C2.97 0 5.94 0 9 0 C8.67 0.66 8.34 1.32 8 2 C7.34 1.67 6.68 1.34 6 1 C6 1.66 6 2.32 6 3 C3.13275314 2.42655063 2.1385485 2.1385485 0 0 Z " fill="#684F43" transform="translate(183,165)"/>
<path d="M0 0 C0.33 0.66 0.66 1.32 1 2 C2.32 1.67 3.64 1.34 5 1 C5.33 1.99 5.66 2.98 6 4 C2.25 5.125 2.25 5.125 0 4 C0 2.68 0 1.36 0 0 Z " fill="#9E5958" transform="translate(70,149)"/>
<path d="M0 0 C0 0.66 0 1.32 0 2 C-2.31 2.33 -4.62 2.66 -7 3 C-7.33 2.34 -7.66 1.68 -8 1 C-4.93251126 -0.86240388 -3.40254489 -1.2151946 0 0 Z " fill="#EA4A30" transform="translate(110,113)"/>
<path d="M0 0 C0.66 0.33 1.32 0.66 2 1 C2 1.66 2 2.32 2 3 C1.01 3 0.02 3 -1 3 C-1.33 4.32 -1.66 5.64 -2 7 C-2.66 7 -3.32 7 -4 7 C-4 5.68 -4 4.36 -4 3 C-2.68 2.67 -1.36 2.34 0 2 C0 1.34 0 0.68 0 0 Z " fill="#97615B" transform="translate(81,100)"/>
<path d="M0 0 C2.97 0 5.94 0 9 0 C9 0.33 9 0.66 9 1 C6.03 1 3.06 1 0 1 C0 0.67 0 0.34 0 0 Z " fill="#000000" transform="translate(170,142)"/>
<path d="M0 0 C2.97 0 5.94 0 9 0 C9 0.33 9 0.66 9 1 C6.03 1 3.06 1 0 1 C0 0.67 0 0.34 0 0 Z " fill="#000000" transform="translate(110,138)"/>
<path d="M0 0 C4 1 4 1 4 1 Z " fill="#000000" transform="translate(106,137)"/>
<path d="M0 0 C3 1 3 1 3 1 Z " fill="#000000" transform="translate(167,141)"/>
<path d="M0 0 C3 1 3 1 3 1 Z " fill="#000000" transform="translate(162,139)"/>
<path d="" fill="#000000" transform="translate(0,0)"/>
<path d="M0 0 C2 1 2 1 2 1 Z " fill="#000000" transform="translate(190,143)"/>
<path d="M0 0 C2 1 2 1 2 1 Z " fill="#000000" transform="translate(165,140)"/>
<path d="" fill="#000000" transform="translate(0,0)"/>
<path d="" fill="#000000" transform="translate(0,0)"/>
<path d="M0 0 C2 1 2 1 2 1 Z " fill="#000000" transform="translate(61,122)"/>
<path d="" fill="#000000" transform="translate(0,0)"/>
<path d="" fill="#000000" transform="translate(0,0)"/>
<path d="" fill="#000000" transform="translate(0,0)"/>
<path d="" fill="#000000" transform="translate(0,0)"/>
<path d="" fill="#000000" transform="translate(0,0)"/>
<path d="" fill="#000000" transform="translate(0,0)"/>
</svg>
